<?xml version="1.0" encoding="utf-8"?>
<!-- Generator: Adobe Illustrator 23.0.1, SVG Export Plug-In . SVG Version: 6.00 Build 0)  -->
<svg version="1.1" xmlns="http://www.w3.org/2000/svg" xmlns:xlink="http://www.w3.org/1999/xlink" x="0px" y="0px"
	 viewBox="0 0 16 16" style="enable-background:new 0 0 16 16;" xml:space="preserve">
<style type="text/css">
	.st0{fill:#666666;}
</style>
<g id="Ebene_4">
</g>
<g id="Ebene_2">
</g>
<g id="Ebene_3">
	<g>
		<path class="st0" d="M7,14.1V16h2v-1.9c-0.3,0.1-0.6,0.2-1,0.2S7.3,14.2,7,14.1z"/>
		<path class="st0" d="M9,1.2V0H7v1.2C7.3,1.1,7.6,1,8,1S8.7,1.1,9,1.2z"/>
		<path class="st0" d="M9,9.1v-3C8.7,6.3,8.4,6.4,8,6.4S7.3,6.3,7,6.2v3C7.3,9,7.6,8.9,8,8.9S8.7,9,9,9.1z"/>
		<path class="st0" d="M9,2.3C8.7,2.1,8.4,2,8,2S7.3,2.1,7,2.3C6.6,2.6,6.3,3.1,6.3,3.7S6.6,4.7,7,5c0.3,0.2,0.6,0.3,1,0.3
			S8.7,5.2,9,5c0.4-0.3,0.7-0.8,0.7-1.4S9.4,2.6,9,2.3z"/>
		<path class="st0" d="M9,10.3c-0.3-0.2-0.6-0.3-1-0.3s-0.7,0.1-1,0.3c-0.4,0.3-0.7,0.8-0.7,1.4s0.3,1,0.7,1.4
			c0.3,0.2,0.6,0.3,1,0.3s0.7-0.1,1-0.3c0.4-0.3,0.7-0.8,0.7-1.4S9.4,10.6,9,10.3z"/>
		<rect x="0.5" y="1.6" class="st0" width="5.3" height="6.5"/>
		<rect x="10.2" y="9.1" class="st0" width="5.3" height="6.5"/>
	</g>
</g>
</svg>
